<?xml version="1.0" encoding="utf-8"?>
<!-- Generator: Adobe Illustrator 23.0.4, SVG Export Plug-In . SVG Version: 6.00 Build 0)  -->
<svg version="1.1" id="Layer_1" xmlns="http://www.w3.org/2000/svg" xmlns:xlink="http://www.w3.org/1999/xlink" x="0px" y="0px"
	 viewBox="0 0 66.8 60" style="enable-background:new 0 0 66.8 60;" xml:space="preserve">
<style type="text/css">
	.st0{fill:#FFFFFF;}
</style>
<path id="Path_342" class="st0" d="M48,0C37.7,0,29.3,8.4,29.3,18.8v4.6l-7.5-7.5l-5.9,5.9l17.6,17.6L51,21.7l-5.9-5.9l-7.5,7.5
	v-4.6c0-5.8,4.7-10.5,10.5-10.5c5.8,0,10.5,4.7,10.5,10.5c0,2.8-1.1,5.4-3.1,7.4l-22,22l-22-22c-4.1-4.1-4.1-10.7,0-14.8
	c0,0,0,0,0,0l0,0c1.9-1.9,4.5-3,7.3-3h0.1c2.8,0,5.5,1.1,7.4,3c0.9-2.7,2.3-5.2,4.2-7.4C27,1.4,23,0,18.7,0h-0.1C13.7,0,9,2,5.5,5.5
	c-7.3,7.3-7.3,19.2,0,26.6L33.4,60l27.9-27.9c7.3-7.3,7.3-19.2,0-26.6C57.8,2,53,0,48,0L48,0z"/>
</svg>
