<svg xmlns="http://www.w3.org/2000/svg" width="66.842" height="60" viewBox="0 0 66.842 60">
  <path id="Path_342" data-name="Path 342" d="M400.51,358.816a18.814,18.814,0,0,0-18.792,18.792v4.57l-7.515-7.515-5.894,5.893,17.573,17.574,17.574-17.574-5.894-5.893-7.51,7.51v-4.565a10.458,10.458,0,1,1,17.854,7.4l-22.024,22.024L363.861,385a10.454,10.454,0,0,1,0-14.79l.022-.024a10.175,10.175,0,0,1,7.251-3h.076a10.517,10.517,0,0,1,7.449,3.033,22.989,22.989,0,0,1,4.169-7.41,18.8,18.8,0,0,0-11.618-3.957h-.131a18.453,18.453,0,0,0-13.123,5.477,18.79,18.79,0,0,0,.012,26.565l27.915,27.918L413.8,390.9a18.794,18.794,0,0,0-13.29-32.082Z" transform="translate(-352.462 -358.816)"/>
</svg>
